<?xml version="1.0" encoding="UTF-8" standalone="no"?>
<!-- Created with Inkscape (http://www.inkscape.org/) -->

<svg
   width="210mm"
   height="297mm"
   viewBox="0 0 210 297"
   version="1.1"
   id="svg34041"
   inkscape:version="1.1.2 (0a00cf5339, 2022-02-04)"
   sodipodi:docname="logo.svg"
   xmlns:inkscape="http://www.inkscape.org/namespaces/inkscape"
   xmlns:sodipodi="http://sodipodi.sourceforge.net/DTD/sodipodi-0.dtd"
   xmlns="http://www.w3.org/2000/svg"
   xmlns:svg="http://www.w3.org/2000/svg">
  <sodipodi:namedview
     id="namedview34043"
     pagecolor="#ffffff"
     bordercolor="#666666"
     borderopacity="1.0"
     inkscape:pageshadow="2"
     inkscape:pageopacity="0.0"
     inkscape:pagecheckerboard="0"
     inkscape:document-units="mm"
     showgrid="false"
     inkscape:zoom="0.66368547"
     inkscape:cx="397.02542"
     inkscape:cy="561.25984"
     inkscape:window-width="1916"
     inkscape:window-height="1160"
     inkscape:window-x="0"
     inkscape:window-y="18"
     inkscape:window-maximized="1"
     inkscape:current-layer="layer1" />
  <defs
     id="defs34038" />
  <g
     inkscape:label="Layer 1"
     inkscape:groupmode="layer"
     id="layer1">
    <g
       aria-label="D"
       transform="matrix(0.26458333,0,0,0.26458333,16.731923,-20.622217)"
       id="text18148"
       style="font-size:192px;font-family:'DejaVu Sans Mono';-inkscape-font-specification:'DejaVu Sans Mono';white-space:pre" />
    <g
       aria-label="T"
       id="text20642"
       style="font-size:50.8px;font-family:'DejaVu Sans Mono';-inkscape-font-specification:'DejaVu Sans Mono';stroke-width:0.264583"
       transform="translate(1.9935658,-2.3914958)" />
    <g
       aria-label="ran"
       id="text23352"
       style="font-size:25.4px;font-family:'DejaVu Sans Mono';-inkscape-font-specification:'DejaVu Sans Mono';stroke-width:0.264583"
       transform="translate(1.9935658,-2.3914958)" />
    <path
       id="path34436"
       style="color:#000000;fill:#000000;stroke-linecap:round;-inkscape-stroke:none"
       d="m 39.557524,100.38876 -0.04358,0.4981 -5.46698,62.48787 129.277666,11.31033 5.51056,-62.98597 z m 0.90904,1.08335 127.285276,11.13602 -5.33625,60.99358 -127.285274,-11.13602 z m -0.90904,-1.08335 -0.04358,0.4981 -5.46698,62.48787 129.277666,11.31033 5.51056,-62.98597 z m 0.90904,1.08335 127.285276,11.13602 -5.33625,60.99358 -127.285274,-11.13602 z m -0.90904,-1.08335 -0.04358,0.4981 -5.46698,62.48787 129.277666,11.31033 5.51056,-62.98597 z m 0.90904,1.08335 127.285276,11.13602 -5.33625,60.99358 -127.285274,-11.13602 z m -2.159664,1.07355 -0.03488,0.49878 -4.375583,62.57376 129.457313,9.05254 4.41047,-63.07255 z m 0.927807,1.06732 127.462193,8.91302 -4.27095,61.07742 -127.462192,-8.91303 z m -2.138833,1.11029 -0.02617,0.49932 -3.282854,62.64059 129.59364,6.79172 3.30902,-63.13991 z m 0.946294,1.05097 127.596382,6.68704 -3.20435,61.14265 -127.596383,-6.68704 z m -0.946294,-1.05097 -0.02617,0.49932 -3.282854,62.64059 129.59364,6.79172 3.30902,-63.13991 z m 0.946294,1.05097 127.596382,6.68704 -3.20435,61.14265 -127.596383,-6.68704 z m -2.120321,1.14939 -0.01745,0.49969 -2.189126,62.68836 129.692429,4.52896 2.20658,-63.18805 z m 0.964492,1.03429 127.693651,4.45916 -2.13678,61.18927 -127.693648,-4.45916 z m -2.099951,1.1852 -0.0087,0.49992 -1.09473,62.71701 129.751722,2.26482 1.10346,-63.21693 z m 0.982395,1.0173 127.752027,2.22992 -1.06855,61.21723 -127.752028,-2.22992 z m -2.079905,1.21956 v 0.5 62.72657 H 163.46232 v -63.22657 z m 1,1 H 162.46232 v 61.22657 H 34.688878 Z m -1,-1 v 0.5 62.72657 H 163.46232 v -63.22657 z m 1,1 H 162.46232 v 61.22657 H 34.688878 Z m 98.029092,40.69537 v 8.60723 h -2.29443 v -8.60723 q 0,-1.87275 -0.65732,-2.75332 -0.65733,-0.88056 -2.05879,-0.88056 -1.59991,0 -2.46807,1.14101 -0.85576,1.12862 -0.85576,3.24942 v 7.85068 h -2.28203 v -13.89062 h 2.28203 v 2.08359 q 0.60771,-1.19062 1.64951,-1.79834 1.0418,-0.62012 2.46807,-0.62012 2.1208,0 3.16259,1.40147 1.0542,1.38906 1.0542,4.21679 z m -19.6205,1.62471 h -0.75655 q -1.99677,0 -3.01377,0.70694 -1.00459,0.69453 -1.00459,2.08359 0,1.25264 0.75655,1.94717 0.75654,0.69453 2.09599,0.69453 1.88516,0 2.96416,-1.30225 1.07901,-1.31465 1.09141,-3.62148 v -0.5085 z m 4.42763,-0.94258 v 7.9251 h -2.29443 v -2.05879 q -0.73174,1.24024 -1.84795,1.83555 -1.10381,0.58291 -2.69131,0.58291 -2.1208,0 -3.38584,-1.19063 -1.26504,-1.20302 -1.26504,-3.2122 0,-2.31924 1.5503,-3.52227 1.56269,-1.20303 4.57646,-1.20303 h 3.06338 v -0.35966 q -0.0124,-1.66192 -0.84336,-2.40606 -0.83096,-0.75654 -2.6541,-0.75654 -1.16582,0 -2.35645,0.33486 -1.19062,0.33487 -2.31923,0.97979 v -2.28203 q 1.26503,-0.4837 2.41845,-0.71934 1.16582,-0.24805 2.25723,-0.24805 1.72392,0 2.93935,0.5085 1.22784,0.5085 1.98438,1.52549 0.47129,0.62011 0.66973,1.53789 0.19843,0.90537 0.19843,2.72851 z m -14.10146,-3.10058 q -0.73174,-0.57051 -1.48829,-0.83096 -0.75654,-0.26045 -1.66191,-0.26045 -2.133204,0 -3.261817,1.33945 -1.128613,1.33946 -1.128613,3.86954 v 6.9081 h -2.294434 v -13.89062 h 2.294434 v 2.71611 q 0.570508,-1.47588 1.74873,-2.25723 1.190625,-0.79375 2.81533,-0.79375 0.84336,0 1.5751,0.21084 0.73174,0.21084 1.40147,0.65733 z M 74.152276,124.91229 h 28.252544 v 4.2168 H 90.821025 v 32.8166 h -5.035351 v -32.8166 H 74.152276 Z m -15.897823,32.62826 q 6.325196,0 8.830469,-3.10059 2.505273,-3.12539 2.505273,-11.26133 0,-8.21035 -2.505273,-11.31093 -2.480469,-3.12539 -8.830469,-3.12539 h -2.38125 v 28.79824 z m 0.09922,-32.91582 q 8.483203,0 12.501563,4.51445 4.018359,4.51445 4.018359,14.03945 0,9.47539 -4.018359,13.98985 -4.01836,4.48965 -12.501563,4.48965 h -7.51582 v -37.0334 z" />
  </g>
</svg>
